<?xml version="1.0" encoding="UTF-8"?>
<svg width="64" height="64" viewBox="0 0 64 64" fill="none" xmlns="http://www.w3.org/2000/svg">
    <rect width="64" height="64" rx="8" fill="#000000"/>
    <path d="M20 20H44V44H20V20ZM24 40H40V24H24V40Z" fill="white"/>
    <path d="M32 24C27.582 24 24 27.582 24 32C24 36.418 27.582 40 32 40C36.418 40 40 36.418 40 32C40 27.582 36.418 24 32 24ZM32 36C29.791 36 28 34.209 28 32C28 29.791 29.791 28 32 28C34.209 28 36 29.791 36 32C36 34.209 34.209 36 32 36Z" fill="white"/>
</svg> 