<?xml version="1.0" encoding="UTF-8"?>
<svg width="64" height="64" viewBox="0 0 64 64" fill="none" xmlns="http://www.w3.org/2000/svg">
    <path d="M32 8C18.75 8 8 18.75 8 32C8 45.25 18.75 56 32 56C45.25 56 56 45.25 56 32C56 18.75 45.25 8 32 8ZM32 52C21.05 52 12 42.95 12 32C12 21.05 21.05 12 32 12C42.95 12 52 21.05 52 32C52 42.95 42.95 52 32 52Z" fill="#2563EB"/>
    <path d="M32 16C23.15 16 16 23.15 16 32C16 40.85 23.15 48 32 48C40.85 48 48 40.85 48 32C48 23.15 40.85 16 32 16ZM32 44C25.35 44 20 38.65 20 32C20 25.35 25.35 20 32 20C38.65 20 44 25.35 44 32C44 38.65 38.65 44 32 44Z" fill="#2563EB"/>
    <path d="M32 24C28.7 24 26 26.7 26 30C26 33.3 28.7 36 32 36C35.3 36 38 33.3 38 30C38 26.7 35.3 24 32 24Z" fill="#2563EB"/>
</svg> 