<?xml version="1.0" encoding="UTF-8"?>
<svg width="24" height="24" viewBox="0 0 24 24" fill="none" xmlns="http://www.w3.org/2000/svg">
  <path d="M6.5 3A2.5 2.5 0 0 0 4 5.5v2A2.5 2.5 0 0 0 6.5 10h.09a1 1 0 0 1 .95.68l1.13 3.38a1 1 0 0 1-.21 1.01l-1.2 1.2a16.06 16.06 0 0 0 6.36 6.36l1.2-1.2a1 1 0 0 1 1.01-.21l3.38 1.13a1 1 0 0 1 .68.95v.09A2.5 2.5 0 0 0 21 19.5v-2A2.5 2.5 0 0 0 18.5 15h-.09a1 1 0 0 1-.95-.68l-1.13-3.38a1 1 0 0 1 .21-1.01l1.2-1.2a16.06 16.06 0 0 0-6.36-6.36l-1.2 1.2a1 1 0 0 1-1.01.21L6.59 3.09A1 1 0 0 1 6.5 3z" stroke="#2563eb" stroke-width="2" fill="none" stroke-linecap="round" stroke-linejoin="round"/>
</svg> 