<?xml version="1.0" encoding="UTF-8"?>
<svg width="48" height="48" viewBox="0 0 24 24" fill="none" xmlns="http://www.w3.org/2000/svg">
    <path d="M3 3H5L5.4 5M7 13H17L21 5H5.4M7 13L5.4 5M7 13L4.707 15.293C4.077 15.923 4.523 17 5.414 17H17M17 17C15.895 17 15 17.895 15 19C15 20.105 15.895 21 17 21C18.105 21 19 20.105 19 19C19 17.895 18.105 17 17 17ZM7 19C7 20.105 7.895 21 9 21C10.105 21 11 20.105 11 19C11 17.895 10.105 17 9 17C7.895 17 7 17.895 7 19Z" stroke="currentColor" stroke-width="2" stroke-linecap="round" stroke-linejoin="round"/>
</svg> 